<svg id="Layer_1" data-name="Layer 1" xmlns="http://www.w3.org/2000/svg" viewBox="0 0 801 300"><defs><style>.cls-1{fill:#fff;}</style></defs><path class="cls-1" d="M247.11,193.15h.41V91.87h27.34V239.75h-34L204.45,136.19H204V239.75H176.69V91.87h34.38Z"/><path class="cls-1" d="M367.27,116.31v34.8m0,88.64H337.45V91.87h29.82Zm0-64.21v39.77"/><path class="cls-1" d="M437.23,91.87q18.64,0,29,9.43T476.58,130q0,14.91-6,24.34t-18.64,12.11v.42q11.18,1.65,16.36,7.24t6.42,18c.28,2.77.48,5.77.62,9s.28,6.87.41,10.87q.42,11.81,1.25,18c.83,4.14,2.62,7,5.38,8.49v1.25H450.07a16.08,16.08,0,0,1-2.9-7.15,79.23,79.23,0,0,1-.82-8.39l-.83-28.37q-.42-8.7-4.35-13.67t-13.26-5H412v62.55H382.14V91.87Zm-12.84,64.62q10.77,0,16.57-5.07t5.8-17.09q0-20.51-20.71-20.5H412v42.66Z"/><path class="cls-1" d="M563,91.87l39.14,147.88H571l-6.84-31.28H524.84L518,239.75H486.94L526.08,91.87ZM559,184l-14.29-66.49h-.41L530,184Z"/><path class="cls-1" d="M651.38,201.22H652L674,91.87h30.86l-34,147.88H632.54l-34-147.88h31.9Z"/><path class="cls-1" d="M798.43,116.31H745.62v34.8h49.7v24.43h-49.7v39.77H800.5v24.44H715.79V91.87h82.64Z"/><polygon class="cls-1" points="321.07 34.34 321.07 0.3 291.24 0.3 291.24 34.34 230.17 34.34 230.17 58.78 291.24 58.78 291.24 128.17 291.24 239.75 321.07 239.75 321.07 128.17 321.07 58.78 382.14 58.78 382.14 34.34 321.07 34.34"/><polygon class="cls-1" points="118.39 91.87 50.27 91.87 14.87 239.7 84.56 147.7 154.28 239.75 14.86 239.75 0.5 299.7 57.26 299.7 62.79 263.32 105.87 263.32 111.4 299.7 169.03 299.7 118.39 91.87"/><path class="cls-1" d="M64,214.26a20.55,20.55,0,0,1,20.54-20.54c-21.12,0-36.91,13.1-44.48,20.54C58.8,232.65,76,234.79,84.56,234.79A20.54,20.54,0,0,1,64,214.26Z"/><path class="cls-1" d="M84.56,193.72a20.54,20.54,0,0,1,0,41.07c21.12,0,36.91-13.1,44.48-20.53C110.31,195.86,93.1,193.72,84.56,193.72Z"/><path class="cls-1" d="M84.56,198.62a15.64,15.64,0,1,1-15.64,15.64,15.66,15.66,0,0,1,15.64-15.64m0-.81A16.45,16.45,0,1,0,101,214.26a16.46,16.46,0,0,0-16.44-16.45Z"/></svg>